<svg xmlns="http://www.w3.org/2000/svg" width="2560" height="1289" style="cursor: move;"><g transform="translate(-1885,-791) scale(2)"><path class="link" marker-end="" d="M984,504.5, 1246,564.5" style="stroke-width: 1.2; stroke-opacity: 1; stroke: rgb(80, 80, 80);"></path><path class="link" marker-end="" d="M984,504.5, 1246,624.5" style="stroke-width: 1.2; stroke-opacity: 1; stroke: rgb(80, 80, 80);"></path><path class="link" marker-end="" d="M984,504.5, 1246,684.5" style="stroke-width: 1.2; stroke-opacity: 1; stroke: rgb(80, 80, 80);"></path><path class="link" marker-end="" d="M984,504.5, 1246,744.5" style="stroke-width: 1.2; stroke-opacity: 1; stroke: rgb(80, 80, 80);"></path><path class="link" marker-end="" d="M984,564.5, 1246,564.5" style="stroke-width: 1.2; stroke-opacity: 1; stroke: rgb(80, 80, 80);"></path><path class="link" marker-end="" d="M984,564.5, 1246,624.5" style="stroke-width: 1.2; stroke-opacity: 1; stroke: rgb(80, 80, 80);"></path><path class="link" marker-end="" d="M984,564.5, 1246,684.5" style="stroke-width: 1.2; stroke-opacity: 1; stroke: rgb(80, 80, 80);"></path><path class="link" marker-end="" d="M984,564.5, 1246,744.5" style="stroke-width: 1.2; stroke-opacity: 1; stroke: rgb(80, 80, 80);"></path><path class="link" marker-end="" d="M984,624.5, 1246,564.5" style="stroke-width: 1.2; stroke-opacity: 1; stroke: rgb(80, 80, 80);"></path><path class="link" marker-end="" d="M984,624.5, 1246,624.5" style="stroke-width: 1.2; stroke-opacity: 1; stroke: rgb(80, 80, 80);"></path><path class="link" marker-end="" d="M984,624.5, 1246,684.5" style="stroke-width: 1.2; stroke-opacity: 1; stroke: rgb(80, 80, 80);"></path><path class="link" marker-end="" d="M984,624.5, 1246,744.5" style="stroke-width: 1.2; stroke-opacity: 1; stroke: rgb(80, 80, 80);"></path><path class="link" marker-end="" d="M984,684.5, 1246,564.5" style="stroke-width: 1.2; stroke-opacity: 1; stroke: rgb(80, 80, 80);"></path><path class="link" marker-end="" d="M984,684.5, 1246,624.5" style="stroke-width: 1.2; stroke-opacity: 1; stroke: rgb(80, 80, 80);"></path><path class="link" marker-end="" d="M984,684.5, 1246,684.5" style="stroke-width: 1.2; stroke-opacity: 1; stroke: rgb(80, 80, 80);"></path><path class="link" marker-end="" d="M984,684.5, 1246,744.5" style="stroke-width: 1.2; stroke-opacity: 1; stroke: rgb(80, 80, 80);"></path><path class="link" marker-end="" d="M984,744.5, 1246,564.5" style="stroke-width: 1.2; stroke-opacity: 1; stroke: rgb(80, 80, 80);"></path><path class="link" marker-end="" d="M984,744.5, 1246,624.5" style="stroke-width: 1.2; stroke-opacity: 1; stroke: rgb(80, 80, 80);"></path><path class="link" marker-end="" d="M984,744.5, 1246,684.5" style="stroke-width: 1.2; stroke-opacity: 1; stroke: rgb(80, 80, 80);"></path><path class="link" marker-end="" d="M984,744.5, 1246,744.5" style="stroke-width: 1.2; stroke-opacity: 1; stroke: rgb(80, 80, 80);"></path><path class="link" marker-end="" d="M1246,504.5, 1508,564.5" style="stroke-width: 1.2; stroke-opacity: 1; stroke: rgb(80, 80, 80);"></path><path class="link" marker-end="" d="M1246,504.5, 1508,624.5" style="stroke-width: 1.2; stroke-opacity: 1; stroke: rgb(80, 80, 80);"></path><path class="link" marker-end="" d="M1246,504.5, 1508,684.5" style="stroke-width: 1.2; stroke-opacity: 1; stroke: rgb(80, 80, 80);"></path><path class="link" marker-end="" d="M1246,504.5, 1508,744.5" style="stroke-width: 1.2; stroke-opacity: 1; stroke: rgb(80, 80, 80);"></path><path class="link" marker-end="" d="M1246,564.5, 1508,564.5" style="stroke-width: 1.2; stroke-opacity: 1; stroke: rgb(80, 80, 80);"></path><path class="link" marker-end="" d="M1246,564.5, 1508,624.5" style="stroke-width: 1.2; stroke-opacity: 1; stroke: rgb(80, 80, 80);"></path><path class="link" marker-end="" d="M1246,564.5, 1508,684.5" style="stroke-width: 1.2; stroke-opacity: 1; stroke: rgb(80, 80, 80);"></path><path class="link" marker-end="" d="M1246,564.5, 1508,744.5" style="stroke-width: 1.2; stroke-opacity: 1; stroke: rgb(80, 80, 80);"></path><path class="link" marker-end="" d="M1246,624.5, 1508,564.5" style="stroke-width: 1.2; stroke-opacity: 1; stroke: rgb(80, 80, 80);"></path><path class="link" marker-end="" d="M1246,624.5, 1508,624.5" style="stroke-width: 1.2; stroke-opacity: 1; stroke: rgb(80, 80, 80);"></path><path class="link" marker-end="" d="M1246,624.5, 1508,684.5" style="stroke-width: 1.2; stroke-opacity: 1; stroke: rgb(80, 80, 80);"></path><path class="link" marker-end="" d="M1246,624.5, 1508,744.5" style="stroke-width: 1.2; stroke-opacity: 1; stroke: rgb(80, 80, 80);"></path><path class="link" marker-end="" d="M1246,684.5, 1508,564.5" style="stroke-width: 1.2; stroke-opacity: 1; stroke: rgb(80, 80, 80);"></path><path class="link" marker-end="" d="M1246,684.5, 1508,624.5" style="stroke-width: 1.2; stroke-opacity: 1; stroke: rgb(80, 80, 80);"></path><path class="link" marker-end="" d="M1246,684.5, 1508,684.5" style="stroke-width: 1.2; stroke-opacity: 1; stroke: rgb(80, 80, 80);"></path><path class="link" marker-end="" d="M1246,684.5, 1508,744.5" style="stroke-width: 1.2; stroke-opacity: 1; stroke: rgb(80, 80, 80);"></path><path class="link" marker-end="" d="M1246,744.5, 1508,564.5" style="stroke-width: 1.2; stroke-opacity: 1; stroke: rgb(80, 80, 80);"></path><path class="link" marker-end="" d="M1246,744.5, 1508,624.5" style="stroke-width: 1.2; stroke-opacity: 1; stroke: rgb(80, 80, 80);"></path><path class="link" marker-end="" d="M1246,744.5, 1508,684.5" style="stroke-width: 1.2; stroke-opacity: 1; stroke: rgb(80, 80, 80);"></path><path class="link" marker-end="" d="M1246,744.5, 1508,744.5" style="stroke-width: 1.2; stroke-opacity: 1; stroke: rgb(80, 80, 80);"></path><path class="link" marker-end="" d="M1508,504.5, 1770,564.5" style="stroke-width: 1.2; stroke-opacity: 1; stroke: rgb(80, 80, 80);"></path><path class="link" marker-end="" d="M1508,564.5, 1770,564.5" style="stroke-width: 1.2; stroke-opacity: 1; stroke: rgb(80, 80, 80);"></path><path class="link" marker-end="" d="M1508,624.5, 1770,564.5" style="stroke-width: 1.2; stroke-opacity: 1; stroke: rgb(80, 80, 80);"></path><path class="link" marker-end="" d="M1508,684.5, 1770,564.5" style="stroke-width: 1.2; stroke-opacity: 1; stroke: rgb(80, 80, 80);"></path><path class="link" marker-end="" d="M1508,744.5, 1770,564.5" style="stroke-width: 1.2; stroke-opacity: 1; stroke: rgb(80, 80, 80);"></path><path class="link" marker-end="" d="M1508,504.5, 1770,624.5" style="stroke-width: 1.2; stroke-opacity: 1; stroke: rgb(80, 80, 80);"></path><path class="link" marker-end="" d="M1508,504.5, 1770,684.5" style="stroke-width: 1.2; stroke-opacity: 1; stroke: rgb(80, 80, 80);"></path><path class="link" marker-end="" d="M1508,564.5, 1770,624.5" style="stroke-width: 1.2; stroke-opacity: 1; stroke: rgb(80, 80, 80);"></path><path class="link" marker-end="" d="M1508,564.5, 1770,684.5" style="stroke-width: 1.2; stroke-opacity: 1; stroke: rgb(80, 80, 80);"></path><path class="link" marker-end="" d="M1508,624.5, 1770,624.5" style="stroke-width: 1.2; stroke-opacity: 1; stroke: rgb(80, 80, 80);"></path><path class="link" marker-end="" d="M1508,624.5, 1770,684.5" style="stroke-width: 1.2; stroke-opacity: 1; stroke: rgb(80, 80, 80);"></path><path class="link" marker-end="" d="M1508,684.5, 1770,624.5" style="stroke-width: 1.2; stroke-opacity: 1; stroke: rgb(80, 80, 80);"></path><path class="link" marker-end="" d="M1508,684.5, 1770,684.5" style="stroke-width: 1.2; stroke-opacity: 1; stroke: rgb(80, 80, 80);"></path><path class="link" marker-end="" d="M1508,744.5, 1770,624.5" style="stroke-width: 1.2; stroke-opacity: 1; stroke: rgb(80, 80, 80);"></path><path class="link" marker-end="" d="M1508,744.5, 1770,684.5" style="stroke-width: 1.2; stroke-opacity: 1; stroke: rgb(80, 80, 80);"></path><circle r="20" class="node" id="0_0" cx="984" cy="504.5" style="fill: rgb(255, 255, 255); stroke: rgb(51, 51, 51);"></circle><circle r="20" class="node" id="0_1" cx="984" cy="564.5" style="fill: rgb(255, 255, 255); stroke: rgb(51, 51, 51);"></circle><circle r="20" class="node" id="0_2" cx="984" cy="624.5" style="fill: rgb(255, 255, 255); stroke: rgb(51, 51, 51);"></circle><circle r="20" class="node" id="0_3" cx="984" cy="684.5" style="fill: rgb(255, 255, 255); stroke: rgb(51, 51, 51);"></circle><circle r="20" class="node" id="0_4" cx="984" cy="744.5" style="fill: rgb(255, 255, 255); stroke: rgb(51, 51, 51);"></circle><circle r="20" class="node" id="1_0" cx="1246" cy="504.5" style="fill: rgb(255, 255, 255); stroke: rgb(51, 51, 51);"></circle><circle r="20" class="node" id="1_1" cx="1246" cy="564.5" style="fill: rgb(255, 255, 255); stroke: rgb(51, 51, 51);"></circle><circle r="20" class="node" id="1_2" cx="1246" cy="624.5" style="fill: rgb(255, 255, 255); stroke: rgb(51, 51, 51);"></circle><circle r="20" class="node" id="1_3" cx="1246" cy="684.5" style="fill: rgb(255, 255, 255); stroke: rgb(51, 51, 51);"></circle><circle r="20" class="node" id="1_4" cx="1246" cy="744.5" style="fill: rgb(255, 255, 255); stroke: rgb(51, 51, 51);"></circle><circle r="20" class="node" id="2_0" cx="1508" cy="504.5" style="fill: rgb(255, 255, 255); stroke: rgb(51, 51, 51);"></circle><circle r="20" class="node" id="2_1" cx="1508" cy="564.5" style="fill: rgb(255, 255, 255); stroke: rgb(51, 51, 51);"></circle><circle r="20" class="node" id="2_2" cx="1508" cy="624.5" style="fill: rgb(255, 255, 255); stroke: rgb(51, 51, 51);"></circle><circle r="20" class="node" id="2_3" cx="1508" cy="684.5" style="fill: rgb(255, 255, 255); stroke: rgb(51, 51, 51);"></circle><circle r="20" class="node" id="2_4" cx="1508" cy="744.5" style="fill: rgb(255, 255, 255); stroke: rgb(51, 51, 51);"></circle><circle r="20" class="node" id="3_0" cx="1770" cy="564.5" style="fill: rgb(255, 255, 255); stroke: rgb(51, 51, 51);"></circle><text class="text" dy=".35em" x="949" y="804.5" style="font-size: 12px;"></text><text class="text" dy=".35em" x="1211" y="804.5" style="font-size: 12px;"></text><text class="text" dy=".35em" x="1473" y="804.5" style="font-size: 12px;"></text><text class="text" dy=".35em" x="1735" y="804.5" style="font-size: 12px;"></text><circle r="20" class="node" id="3_1" cx="1770" cy="624.5" style="fill: rgb(255, 255, 255); stroke: rgb(51, 51, 51);"></circle><circle r="20" class="node" id="3_2" cx="1770" cy="684.5" style="fill: rgb(255, 255, 255); stroke: rgb(51, 51, 51);"></circle></g><defs><marker id="arrow" viewBox="0 -5 10 10" markerWidth="7" markerHeight="7" orient="auto" refX="68"><path d="M0,-5L10,0L0,5" style="stroke: rgb(80, 80, 80); fill: none;"></path></marker></defs></svg>